<?xml version="1.0" standalone="no"?>
<!DOCTYPE svg PUBLIC "-//W3C//DTD SVG 20010904//EN"
 "http://www.w3.org/TR/2001/REC-SVG-20010904/DTD/svg10.dtd">
<svg version="1.0" xmlns="http://www.w3.org/2000/svg"
 width="366.000000pt" height="420.000000pt" viewBox="0 0 366.000000 420.000000"
 preserveAspectRatio="xMidYMid meet">

<g transform="translate(0.000000,420.000000) scale(0.100000,-0.100000)"
fill="#000000" stroke="none">
<path d="M1625 4180 c-433 -89 -739 -402 -820 -839 -11 -64 -15 -157 -15 -396
l0 -312 -182 -6 c-189 -5 -234 -14 -329 -62 -134 -69 -243 -221 -269 -373 -7
-47 -10 -325 -8 -917 l3 -850 25 -65 c68 -174 203 -295 372 -335 94 -22 2772
-22 2866 0 171 40 317 174 372 341 20 59 20 80 18 970 l-3 909 -32 68 c-70
147 -166 233 -322 289 -45 16 -91 21 -238 25 l-183 6 0 312 c0 239 -4 332 -15
396 -83 445 -399 761 -844 844 -111 20 -283 18 -396 -5z m390 -395 c186 -49
355 -197 424 -371 43 -111 51 -187 51 -494 l0 -290 -655 0 -655 0 0 283 c0
155 5 311 11 347 54 339 331 562 674 545 50 -2 117 -12 150 -20z m1204 -1570
c21 -12 39 -34 47 -55 10 -27 13 -219 13 -843 1 -890 3 -858 -61 -897 -33 -20
-47 -20 -1384 -20 l-1351 0 -34 23 c-19 13 -39 38 -46 57 -17 50 -18 1616 -1
1672 13 43 40 66 91 78 17 5 631 7 1362 7 1312 -2 1330 -2 1364 -22z"/>
</g>
</svg>
